<svg width="245" height="30" viewBox="0 0 245 30" fill="none" xmlns="http://www.w3.org/2000/svg">
<rect y="1.0957" width="27.8086" height="27.8086" rx="3.47608" fill="#F50723"/>
<path d="M7.72662 13.7029H6.16846V8.39752H4.05588V7.04967H9.8392V8.39752H7.72662V13.7029ZM13.2701 13.8558C12.773 13.8558 12.3142 13.7698 11.9032 13.5977C11.4826 13.4257 11.1193 13.1867 10.823 12.8712C10.5171 12.5558 10.2781 12.1925 10.1156 11.7624C9.94352 11.3418 9.85748 10.8829 9.85748 10.3763C9.85748 9.86964 9.94352 9.41079 10.1156 8.98063C10.2781 8.56002 10.5171 8.19677 10.823 7.88132C11.1193 7.56587 11.4826 7.32689 11.9032 7.15482C12.3142 6.98275 12.773 6.89672 13.2701 6.89672C13.7768 6.89672 14.2356 6.98275 14.6562 7.15482C15.0673 7.32689 15.4305 7.56587 15.7364 7.88132C16.0423 8.19677 16.2813 8.56002 16.4533 8.98063C16.6158 9.41079 16.7019 9.86964 16.7019 10.3763C16.7019 10.8829 16.6158 11.3418 16.4533 11.7624C16.2813 12.1925 16.0423 12.5558 15.7364 12.8712C15.4305 13.1867 15.0673 13.4257 14.6562 13.5977C14.2356 13.7698 13.7768 13.8558 13.2701 13.8558ZM13.2701 12.4793C13.6334 12.4793 13.9584 12.3933 14.2356 12.2116C14.5128 12.0396 14.7231 11.791 14.8856 11.4756C15.0481 11.1601 15.1246 10.7969 15.1246 10.3763C15.1246 9.95567 15.0481 9.58286 14.8856 9.26741C14.7231 8.95195 14.5128 8.71297 14.2356 8.53135C13.9584 8.35928 13.6334 8.27325 13.2701 8.27325C12.9164 8.27325 12.601 8.35928 12.3238 8.53135C12.0465 8.71297 11.8267 8.95195 11.6737 9.26741C11.5112 9.58286 11.4348 9.95567 11.4348 10.3763C11.4348 10.7969 11.5112 11.1601 11.6737 11.4756C11.8267 11.791 12.0465 12.0396 12.3238 12.2116C12.601 12.3933 12.9164 12.4793 13.2701 12.4793ZM17.3004 13.7029V7.04967H20.0534C20.5983 7.04967 21.0763 7.14526 21.4682 7.33645C21.8601 7.52763 22.166 7.79529 22.3763 8.13942C22.5866 8.48355 22.6918 8.88504 22.6918 9.34388C22.6918 9.80272 22.5866 10.2042 22.3763 10.5483C22.166 10.902 21.8601 11.1697 21.4682 11.3609C21.0763 11.5521 20.5983 11.6477 20.0534 11.6477H18.8585V13.7029H17.3004ZM18.8585 10.3285H19.824C20.2733 10.3285 20.5983 10.2424 20.8086 10.0704C21.0093 9.90787 21.1145 9.65933 21.1145 9.34388C21.1145 9.02843 21.0093 8.78945 20.8086 8.61738C20.5983 8.45487 20.2733 8.36884 19.824 8.36884H18.8585V10.3285Z" fill="white"/>
<path d="M9.40302 23.7859V16.3749L7.19223 16.9867V15.0818L11.5999 13.9277V23.7859H9.40302ZM17.5343 23.9945C16.7418 23.9945 16.0466 23.7859 15.4487 23.3688C14.8508 22.9655 14.378 22.3816 14.0582 21.6168C13.7384 20.866 13.5716 19.9761 13.5716 18.9472C13.5716 17.9322 13.7384 17.0423 14.0582 16.2776C14.378 15.5128 14.8508 14.9288 15.4487 14.5117C16.0466 14.1085 16.7418 13.8999 17.5343 13.8999C18.3269 13.8999 19.036 14.1085 19.6339 14.5117C20.2318 14.9288 20.6906 15.5128 21.0104 16.2776C21.3302 17.0423 21.497 17.9322 21.497 18.9472C21.497 19.9761 21.3302 20.866 21.0104 21.6168C20.6906 22.3816 20.2318 22.9655 19.6339 23.3688C19.036 23.7859 18.3269 23.9945 17.5343 23.9945ZM17.5343 22.0479C18.0766 22.0479 18.4937 21.7698 18.7996 21.2275C19.1055 20.6852 19.2585 19.9344 19.2585 18.9472C19.2585 17.96 19.1055 17.1952 18.7996 16.653C18.4937 16.1107 18.0766 15.8465 17.5343 15.8465C16.9921 15.8465 16.5749 16.1107 16.269 16.653C15.9631 17.1952 15.8102 17.96 15.8102 18.9472C15.8102 19.9344 15.9631 20.6852 16.269 21.2275C16.5749 21.7698 16.9921 22.0479 17.5343 22.0479Z" fill="white"/>
<path d="M39.6551 22.5L40.2807 18.9753H38.8208V16.9522H40.6353L41.2401 13.5943H38.9876V11.5712H41.5947L42.2204 8.04647H44.3895L43.7638 11.5712H46.8088L47.4345 8.04647H49.5827L48.957 11.5712H50.417V13.5943H48.6025L47.9976 16.9522H50.2501V18.9753H47.6431L47.0174 22.5H44.8483L45.474 18.9753H42.429L41.8033 22.5H39.6551ZM42.8044 16.9522H45.8494L46.4334 13.5943H43.3884L42.8044 16.9522ZM51.6365 22.5V20.2684L57.3512 15.2211C58.0811 14.5745 58.6026 14.0323 58.8737 13.6151C59.1448 13.198 59.27 12.7392 59.27 12.2178C59.27 11.6338 59.0614 11.1332 58.6234 10.737C58.1854 10.3407 57.6014 10.1321 56.8506 10.1321C56.1206 10.1321 55.5367 10.3198 55.0987 10.6744C54.6398 11.0289 54.3478 11.5086 54.2436 12.0718H51.5531C51.6782 11.2167 51.9702 10.445 52.4499 9.77756C52.9296 9.13101 53.5344 8.6096 54.3061 8.23418C55.0778 7.85876 55.9329 7.67106 56.9132 7.67106C57.9143 7.67106 58.8111 7.85876 59.5828 8.23418C60.3545 8.63045 60.9802 9.15186 61.4182 9.81927C61.8562 10.5075 62.0647 11.2792 62.0647 12.1761C62.0647 13.1146 61.8144 13.9489 61.3139 14.658C60.7925 15.3879 60.0834 16.1388 59.1657 16.9105L55.4741 20.0807H62.2107V22.5H51.6365ZM69.8906 10.4658C69.4526 10.4658 69.0563 10.299 68.7435 9.98612C68.4098 9.67328 68.2429 9.277 68.2429 8.81816C68.2429 8.35932 68.4098 7.96305 68.7435 7.6502C69.0563 7.33735 69.4526 7.1705 69.8906 7.1705C70.3286 7.1705 70.7248 7.33735 71.0585 7.6502C71.3714 7.96305 71.5382 8.35932 71.5382 8.81816C71.5382 9.277 71.3714 9.67328 71.0585 9.98612C70.7248 10.299 70.3286 10.4658 69.8906 10.4658ZM68.5558 22.5V11.7172H71.2045V22.5H68.5558ZM76.1878 16.1596V22.5H73.539V11.7172H76.0835V12.9895C76.8552 11.9258 77.9397 11.4044 79.3371 11.4044C80.5051 11.4044 81.4228 11.8006 82.111 12.614C82.7993 13.4274 83.133 14.4911 83.133 15.8051V22.5H80.4842V16.2013C80.4842 15.4714 80.3174 14.8665 79.9837 14.4285C79.6291 13.9906 79.1077 13.782 78.4194 13.782C77.7938 13.782 77.2723 13.9906 76.8344 14.4077C76.3964 14.8457 76.1878 15.4297 76.1878 16.1596ZM96.7066 22.5H93.8701V10.4658H89.0314V7.9839H101.545V10.4658H96.7066V22.5ZM116.27 7.9839L110.701 22.5H107.74L102.171 7.9839H105.258L109.283 19.0795L113.287 7.9839H116.27ZM127.199 22.8337C125.51 22.8337 124.133 22.4374 123.069 21.6657C122.006 20.8941 121.297 19.8095 120.984 18.4121H123.82C124.008 18.9961 124.383 19.455 124.988 19.8095C125.572 20.1641 126.302 20.3518 127.157 20.3518C127.971 20.3518 128.659 20.1849 129.201 19.8721C129.723 19.5592 129.994 19.1213 129.994 18.5164C129.994 18.1619 129.91 17.8699 129.764 17.5987C129.618 17.3485 129.326 17.119 128.909 16.9313C128.492 16.7436 127.887 16.5976 127.095 16.4725L125.468 16.2013C124.112 15.9719 123.111 15.5548 122.444 14.9082C121.756 14.2617 121.422 13.344 121.422 12.1552C121.422 11.2375 121.672 10.445 122.173 9.7567C122.652 9.0893 123.32 8.56788 124.175 8.19247C125.009 7.83791 125.948 7.6502 126.991 7.6502C128.513 7.6502 129.785 8.00476 130.807 8.71388C131.829 9.44385 132.476 10.4867 132.705 11.8632H129.869C129.723 11.2792 129.41 10.8412 128.909 10.5492C128.409 10.2781 127.783 10.1321 127.011 10.1321C126.156 10.1321 125.489 10.2781 125.009 10.591C124.529 10.9038 124.279 11.3418 124.279 11.9049C124.279 12.4055 124.467 12.8017 124.842 13.0729C125.197 13.344 125.927 13.5734 127.032 13.7611L128.596 14.0114C131.454 14.4703 132.872 15.8885 132.872 18.2453C132.872 19.2255 132.622 20.0389 132.142 20.7272C131.662 21.4155 130.995 21.9369 130.14 22.2914C129.285 22.6669 128.304 22.8337 127.199 22.8337ZM134.662 22.5V7.37907H137.311V12.906C138.083 11.9049 139.146 11.4044 140.46 11.4044C141.628 11.4044 142.546 11.8006 143.234 12.614C143.923 13.4274 144.256 14.4911 144.256 15.8051V22.5H141.608V16.2013C141.608 15.4714 141.441 14.8665 141.107 14.4285C140.752 13.9906 140.231 13.782 139.543 13.782C138.917 13.782 138.396 13.9906 137.958 14.4077C137.52 14.8457 137.311 15.4297 137.311 16.1596V22.5H134.662ZM151.265 22.8128C150.202 22.8128 149.284 22.5626 148.47 22.0829C147.657 21.6032 147.011 20.9149 146.552 20.0598C146.093 19.2047 145.863 18.2244 145.863 17.0982C145.863 15.9719 146.093 14.9708 146.552 14.1157C147.011 13.2606 147.657 12.5932 148.47 12.1135C149.284 11.6338 150.202 11.4044 151.265 11.4044C152.329 11.4044 153.267 11.6338 154.081 12.1135C154.894 12.5932 155.52 13.2606 155.979 14.1157C156.438 14.9708 156.667 15.9719 156.667 17.0982C156.667 18.2244 156.438 19.2047 155.979 20.0598C155.52 20.9149 154.894 21.6032 154.081 22.0829C153.267 22.5626 152.329 22.8128 151.265 22.8128ZM151.265 20.4561C152.079 20.4561 152.725 20.1432 153.226 19.5384C153.726 18.9335 153.977 18.1201 153.977 17.0982C153.977 16.0762 153.726 15.2628 153.226 14.658C152.725 14.0531 152.079 13.7611 151.265 13.7611C150.452 13.7611 149.805 14.0531 149.305 14.658C148.804 15.2628 148.554 16.0762 148.554 17.0982C148.554 18.1201 148.804 18.9335 149.305 19.5384C149.805 20.1432 150.452 20.4561 151.265 20.4561ZM160.489 22.5L157.048 11.7172H159.78L161.782 18.7041L163.722 11.7381H166.099L168.122 18.725L170.125 11.7172H172.773L169.332 22.5H167.017L164.89 15.2002L162.804 22.5H160.489ZM177.835 22.8128C176.5 22.8128 175.415 22.5 174.581 21.8743C173.726 21.2695 173.246 20.4561 173.1 19.455H175.645C175.707 19.7678 175.937 20.0598 176.333 20.2892C176.729 20.5186 177.209 20.6438 177.772 20.6438C178.335 20.6438 178.773 20.5395 179.107 20.3101C179.42 20.1015 179.587 19.8095 179.587 19.455C179.587 19.1421 179.462 18.8918 179.211 18.6833C178.961 18.4747 178.523 18.3287 177.897 18.2453L176.333 18.0367C175.311 17.8907 174.539 17.557 174.039 17.0148C173.538 16.4933 173.288 15.7842 173.288 14.9291C173.288 14.22 173.476 13.5943 173.851 13.0729C174.227 12.5515 174.748 12.1343 175.394 11.8423C176.041 11.5504 176.792 11.4044 177.605 11.4044C178.46 11.4044 179.19 11.5504 179.816 11.8423C180.442 12.1343 180.942 12.5306 181.318 13.0103C181.693 13.5109 181.923 14.0531 182.027 14.6371H179.503C179.399 14.3034 179.19 14.0323 178.878 13.8446C178.544 13.6569 178.127 13.5734 177.647 13.5734C177.126 13.5734 176.688 13.6777 176.375 13.9071C176.062 14.1366 175.895 14.4285 175.895 14.7831C175.895 15.096 176.02 15.3254 176.27 15.4714C176.521 15.6382 176.938 15.7634 177.522 15.8468L179.065 16.0554C180.108 16.2013 180.901 16.5768 181.422 17.1816C181.943 17.7864 182.215 18.4956 182.215 19.3507C182.215 20.0598 182.027 20.6646 181.651 21.186C181.255 21.7075 180.734 22.1037 180.087 22.3749C179.42 22.6669 178.669 22.8128 177.835 22.8128ZM195.184 22.5H192.348V10.4658H187.509V7.9839H200.023V10.4658H195.184V22.5ZM204.635 22.8128C203.572 22.8128 202.654 22.5626 201.84 22.0829C201.027 21.6032 200.381 20.9149 199.922 20.0598C199.463 19.2047 199.233 18.2244 199.233 17.0982C199.233 15.9719 199.463 14.9708 199.922 14.1157C200.381 13.2606 201.027 12.5932 201.84 12.1135C202.654 11.6338 203.572 11.4044 204.635 11.4044C205.699 11.4044 206.637 11.6338 207.451 12.1135C208.264 12.5932 208.89 13.2606 209.349 14.1157C209.808 14.9708 210.037 15.9719 210.037 17.0982C210.037 18.2244 209.808 19.2047 209.349 20.0598C208.89 20.9149 208.264 21.6032 207.451 22.0829C206.637 22.5626 205.699 22.8128 204.635 22.8128ZM204.635 20.4561C205.449 20.4561 206.095 20.1432 206.596 19.5384C207.096 18.9335 207.347 18.1201 207.347 17.0982C207.347 16.0762 207.096 15.2628 206.596 14.658C206.095 14.0531 205.449 13.7611 204.635 13.7611C203.822 13.7611 203.175 14.0531 202.675 14.658C202.174 15.2628 201.924 16.0762 201.924 17.0982C201.924 18.1201 202.174 18.9335 202.675 19.5384C203.175 20.1432 203.822 20.4561 204.635 20.4561ZM215.877 22.8128C214.939 22.8128 214.125 22.5626 213.416 22.0829C212.686 21.6032 212.123 20.9149 211.727 20.0598C211.31 19.2047 211.101 18.2244 211.101 17.0982C211.101 15.9719 211.31 14.9708 211.727 14.1157C212.123 13.2606 212.686 12.5932 213.416 12.1135C214.125 11.6338 214.939 11.4044 215.877 11.4044C216.565 11.4044 217.191 11.5504 217.733 11.8215C218.276 12.1135 218.734 12.5098 219.11 13.0312V7.37907H221.738V22.5H219.193V21.0818C218.839 21.624 218.38 22.0412 217.817 22.354C217.254 22.6669 216.607 22.8128 215.877 22.8128ZM216.503 20.4561C217.316 20.4561 217.963 20.1432 218.484 19.5384C218.985 18.9335 219.235 18.1201 219.235 17.0982C219.235 16.0762 218.985 15.2628 218.484 14.658C217.963 14.0531 217.316 13.7611 216.503 13.7611C215.71 13.7611 215.064 14.0531 214.563 14.658C214.042 15.2628 213.791 16.0762 213.791 17.0982C213.791 18.1201 214.042 18.9335 214.563 19.5384C215.064 20.1432 215.71 20.4561 216.503 20.4561ZM227.066 22.8128C225.94 22.8128 225.043 22.5 224.376 21.8743C223.687 21.2695 223.354 20.4352 223.354 19.4132C223.354 18.3079 223.75 17.4319 224.563 16.8062C225.377 16.1805 226.503 15.8676 227.942 15.8676H230.132V15.4714C230.132 14.804 229.944 14.3243 229.59 14.0114C229.235 13.7194 228.735 13.5734 228.13 13.5734C227.608 13.5734 227.17 13.6777 226.837 13.8863C226.503 14.0948 226.294 14.3451 226.211 14.6163H223.666C223.854 13.6986 224.334 12.9269 225.126 12.322C225.919 11.7172 226.941 11.4044 228.213 11.4044C229.61 11.4044 230.716 11.7589 231.529 12.4472C232.343 13.1563 232.739 14.2617 232.739 15.7425V22.5H230.299V21.1652C229.944 21.7283 229.485 22.1454 228.901 22.4166C228.297 22.6877 227.692 22.8128 227.066 22.8128ZM227.733 20.6855C228.109 20.6855 228.484 20.6021 228.86 20.4352C229.214 20.2684 229.527 20.0181 229.777 19.6844C230.007 19.3715 230.132 18.9544 230.132 18.4538V17.7656H228.067C227.379 17.7656 226.857 17.8907 226.503 18.141C226.127 18.4121 225.94 18.7667 225.94 19.2464C225.94 19.7261 226.107 20.0807 226.44 20.3101C226.774 20.5603 227.212 20.6855 227.733 20.6855ZM235.777 26.7756L237.55 22.5L233.316 11.7172H236.34L239.009 19.4132L241.637 11.7172H244.495L238.613 26.7756H235.777Z" fill="white"/>
</svg>
