<svg width="40" height="41" viewBox="0 0 40 41" fill="none" xmlns="http://www.w3.org/2000/svg">
<circle cx="20" cy="20.5" r="20" fill="#2A2A2A"/>
<circle cx="20" cy="20.5" r="19" stroke="white" stroke-opacity="0.5" stroke-width="2"/>
<path fill-rule="evenodd" clip-rule="evenodd" d="M18.9824 13.8764V16.4955C18.9824 16.6722 18.9465 16.8512 18.8732 17.0173C17.7098 19.6527 15.9939 20.9447 14.3478 21.2388C14.3075 21.246 14.2748 21.2664 14.2566 21.2862C14.2484 21.2951 14.2454 21.3013 14.2447 21.3032L14.2444 21.3039L14.2444 25.5334C14.2444 25.5334 14.2459 25.5354 14.2475 25.5369C14.2541 25.5431 14.2637 25.547 14.2749 25.5464C15.6231 25.4648 16.4975 25.6092 17.1677 25.8373C17.4974 25.9495 17.7643 26.0776 17.9888 26.1881C18.0085 26.1978 18.0276 26.2073 18.0463 26.2165C18.2495 26.3167 18.4009 26.3913 18.5631 26.4488C18.6545 26.4812 18.9299 26.5218 19.4096 26.5438C19.8588 26.5643 20.414 26.5666 21.0064 26.5569C22.1899 26.5375 23.4917 26.4708 24.328 26.4152L24.348 26.4139H24.3681C24.4601 26.4139 24.5177 26.4022 24.5505 26.3918C24.5814 26.3821 24.5921 26.3729 24.5937 26.3716C24.5954 26.3701 24.6 26.3662 24.6069 26.3528C24.6148 26.3377 24.6259 26.3098 24.6353 26.2633C24.6813 26.0341 24.6314 25.7009 24.5607 25.3077C24.4834 24.8773 24.7014 24.503 24.991 24.3111C25.4957 23.9766 25.5088 23.5716 25.4643 23.4349C25.3822 23.1819 25.3529 22.8065 25.5662 22.4718C25.7767 22.1415 25.7706 21.93 25.7389 21.7997C25.7003 21.641 25.5927 21.4841 25.4394 21.334C25.0944 20.9962 25.0536 20.4803 25.255 20.0951C25.3405 19.9315 25.3401 19.8251 25.3276 19.7579C25.3132 19.6799 25.2693 19.5906 25.1842 19.4951C25.0986 19.3991 24.9892 19.318 24.8881 19.2624C24.8405 19.2362 24.8019 19.2196 24.7771 19.2108H21.3541V16.9733C21.3541 15.0072 20.9005 14.2779 20.5275 14.0036C20.1439 13.7215 19.6099 13.7359 18.9824 13.8764ZM21.2518 12.9639C22.128 13.6083 22.5985 14.8852 22.5985 16.9733V17.9322H24.8221C24.9577 17.9322 25.0842 17.9679 25.1714 17.9981C25.2703 18.0324 25.3736 18.0792 25.4756 18.1353C25.6777 18.2465 25.9053 18.4112 26.1016 18.6313C26.2984 18.8519 26.4815 19.1488 26.5501 19.5186C26.6113 19.8488 26.5733 20.1958 26.4262 20.542C26.6306 20.7688 26.8475 21.0841 26.9462 21.4895C27.0666 21.9842 26.9906 22.527 26.6613 23.0842C26.8668 23.8005 26.5912 24.683 25.8199 25.2754C25.8775 25.6141 25.94 26.0934 25.854 26.5215C25.7974 26.8038 25.6674 27.1177 25.3883 27.3555C25.1133 27.5899 24.7662 27.6887 24.3898 27.6923C23.539 27.7486 22.2266 27.8156 21.0263 27.8352C20.4224 27.8451 19.8392 27.8432 19.3543 27.821C18.8998 27.8002 18.4454 27.7596 18.1573 27.6575C17.9229 27.5744 17.7059 27.4671 17.5143 27.3724C17.4929 27.3618 17.4719 27.3514 17.4512 27.3412C17.2363 27.2354 17.0279 27.1366 16.7764 27.051C16.284 26.8834 15.5716 26.7487 14.3481 26.8227C13.6439 26.8653 13 26.3026 13 25.5339V21.3039C13 20.5771 13.5627 20.0813 14.1346 19.9791C15.2845 19.7738 16.7032 18.8347 17.738 16.4935V13.8698C17.738 13.2972 18.1139 12.7645 18.693 12.6327C19.3574 12.4816 20.3903 12.3304 21.2518 12.9639Z" fill="white"/>
</svg>
