<svg width="24" height="25" viewBox="0 0 24 25" fill="none" xmlns="http://www.w3.org/2000/svg">
<g id="Icon / SocialMedia / Instagram">
<mask id="mask0_2125_3690" style="mask-type:luminance" maskUnits="userSpaceOnUse" x="0" y="0" width="24" height="25">
<g id="SVGID_00000170980134926788928000000000553113072940639111_">
<path id="Vector" d="M7.05475 0.545553C5.7843 0.605517 4.91655 0.809028 4.15827 1.10615C3.37331 1.41216 2.70793 1.82223 2.04601 2.48688C1.38332 3.15191 0.976322 3.81848 0.672632 4.60423C0.378614 5.36442 0.179378 6.23257 0.123259 7.50383C0.0675693 8.77743 0.0547932 9.18364 0.0610021 12.426C0.0671872 15.668 0.0814917 16.075 0.14222 17.349C0.202948 18.6191 0.405695 19.4864 0.702817 20.2451C1.00921 21.03 1.41888 21.6951 2.0839 22.3574C2.74855 23.0197 3.41549 23.4263 4.20161 23.7304C4.96101 24.024 5.82955 24.2241 7.10041 24.2798C8.37396 24.3359 8.78055 24.3483 12.0221 24.3421C15.2652 24.3359 15.6718 24.3215 16.9454 24.2612C18.2158 24.2005 19.0828 23.997 19.8419 23.7006C20.6268 23.3935 21.2922 22.9845 21.9541 22.3195C22.6161 21.6548 23.0231 20.9879 23.3268 20.2018C23.6208 19.4423 23.8208 18.5738 23.8761 17.3037C23.9318 16.0294 23.945 15.6224 23.9388 12.3804C23.9326 9.13801 23.9179 8.7318 23.8575 7.45858C23.7972 6.18734 23.5937 5.32036 23.2969 4.56131C22.9902 3.77636 22.5809 3.11171 21.9162 2.449C21.2516 1.78706 20.5847 1.3793 19.7985 1.07637C19.0387 0.782353 18.1706 0.581947 16.8997 0.527022C15.6262 0.47052 15.2196 0.45815 11.9768 0.464335C8.73491 0.470544 8.32835 0.484467 7.05475 0.545577M7.19404 22.1307C6.02996 22.08 5.39781 21.8866 4.97651 21.7245C4.41866 21.5086 4.02057 21.2498 3.60159 20.8339C3.18339 20.4165 2.92381 20.0195 2.70599 19.4628C2.54234 19.0415 2.34544 18.4102 2.2909 17.246C2.23168 15.9876 2.21816 15.61 2.21233 12.4218C2.20617 9.23434 2.21775 8.85674 2.2727 7.59709C2.32261 6.43377 2.51722 5.80086 2.67891 5.37994C2.89479 4.82128 3.1528 4.42398 3.56947 4.00499C3.9869 3.58601 4.38382 3.32719 4.94093 3.1094C5.36183 2.94496 5.99321 2.74959 7.15688 2.69428C8.41616 2.6347 8.79333 2.62192 11.9807 2.61574C15.1689 2.60953 15.5465 2.62075 16.8061 2.67608C17.9694 2.72676 18.6023 2.91943 19.0229 3.08229C19.5811 3.29817 19.9792 3.55544 20.3978 3.97287C20.8164 4.39031 21.076 4.78648 21.2938 5.34472C21.4582 5.76447 21.6536 6.39663 21.7085 7.55995C21.7684 8.81922 21.782 9.1968 21.7878 12.3842C21.794 15.5724 21.7824 15.95 21.7271 17.2089C21.6764 18.373 21.4833 19.0055 21.3208 19.4272C21.105 19.9847 20.8469 20.3828 20.4299 20.8018C20.0129 21.2192 19.6159 21.4796 19.0584 21.6974C18.6383 21.8614 18.0062 22.0572 16.8432 22.1125C15.584 22.1717 15.2068 22.1852 12.0183 22.191C8.83087 22.1973 8.45367 22.1852 7.19404 22.1307ZM16.928 6.02061C16.9295 6.81137 17.5725 7.45163 18.3632 7.4501C19.1544 7.44855 19.7946 6.80595 19.7935 6.01517C19.7919 5.22441 19.149 4.58376 18.3578 4.58531C17.5667 4.58684 16.9264 5.22983 16.928 6.02059M5.86903 12.4148C5.87559 15.8011 8.62583 18.5401 12.0113 18.5335C15.3971 18.527 18.1377 15.7775 18.1311 12.3912C18.1245 9.00607 15.3739 6.26546 11.9877 6.27202C8.60221 6.27862 5.86244 9.02928 5.86903 12.4148ZM8.01959 12.4105C8.01573 10.2127 9.79454 8.4273 11.9919 8.42343C14.1897 8.41918 15.9755 10.1972 15.9798 12.3954C15.984 14.5936 14.2052 16.3787 12.007 16.3829C9.80964 16.3872 8.02384 14.6087 8.01959 12.4105Z" fill="white"/>
</g>
</mask>
<g mask="url(#mask0_2125_3690)">
<g id="Group">
<g id="Clip path group">
<rect id="Rectangle" x="-1.03174" y="-0.594727" width="26.0432" height="26.0432" fill="white"/>
</g>
</g>
</g>
</g>
</svg>
