<svg width="24" height="18" viewBox="0 0 24 18" fill="none" xmlns="http://www.w3.org/2000/svg">
<g id="Icon / SocialMedia / YouTube">
<path id="Vector" d="M23.4984 3.42121C23.2224 2.38855 22.4093 1.57541 21.3766 1.29946C19.5048 0.797851 11.9999 0.797852 11.9999 0.797852C11.9999 0.797852 4.49498 0.797851 2.62313 1.29946C1.5907 1.57541 0.777375 2.38855 0.501375 3.42121C0 5.29284 0 9.1979 0 9.1979C0 9.1979 0 13.103 0.501375 14.9744C0.777375 16.0071 1.5907 16.8204 2.62313 17.0963C4.49498 17.5978 11.9999 17.5978 11.9999 17.5978C11.9999 17.5978 19.5048 17.5978 21.3766 17.0963C22.4093 16.8204 23.2224 16.0071 23.4984 14.9744C24 13.103 24 9.1979 24 9.1979C24 9.1979 24 5.29284 23.4984 3.42121Z" fill="white"/>
<path id="Vector_2" d="M9.59985 12.7982L15.8351 9.19819L9.59985 5.59814V12.7982Z" fill="black"/>
</g>
</svg>
